<svg width="115" height="42" viewBox="0 0 115 42" fill="none" xmlns="http://www.w3.org/2000/svg">
<path d="M57.1167 14.828H47V17.9391H50.3487V27.3439H53.768V17.9391H57.1167V14.828Z" fill="#393939"/>
<path d="M64.8043 17.6888L64.4694 18.4397C63.6939 17.7782 62.6893 17.4027 61.5613 17.4027C58.6532 17.4027 56.5735 19.5304 56.5735 22.5163C56.5735 25.5202 58.6532 27.6658 61.5613 27.6658C62.6717 27.6658 63.6587 27.3082 64.4342 26.6645L64.7162 27.3439H67.2542V17.6888H64.8043ZM62.002 24.7335C60.7682 24.7335 59.8693 23.7858 59.8693 22.5163C59.8693 21.2647 60.7682 20.335 62.002 20.335C63.2357 20.335 64.1346 21.2647 64.1346 22.5163C64.1346 23.7858 63.2357 24.7335 62.002 24.7335Z" fill="#393939"/>
<path d="M69.3407 16.4908H72.5836V13.6658H69.3407V16.4908ZM69.323 27.3439H72.6013V17.6888H69.323V27.3439Z" fill="#393939"/>
<path d="M78.5714 24.3937L82.1669 18.243V17.6888H74.3062V20.639H77.6373L73.9889 26.8612V27.3439H82.2021V24.3937H78.5714Z" fill="#393939"/>
<path d="M88.3852 27.6658C91.4872 27.6658 93.7255 25.5023 93.7255 22.5163C93.7255 19.5304 91.4872 17.3848 88.3852 17.3848C85.2832 17.3848 83.0625 19.5304 83.0625 22.5163C83.0625 25.5023 85.2832 27.6658 88.3852 27.6658ZM88.3852 24.6798C87.2043 24.6798 86.3407 23.8037 86.3407 22.5342C86.3407 21.2469 87.2043 20.3708 88.3852 20.3708C89.5837 20.3708 90.4473 21.2648 90.4473 22.5342C90.4473 23.8037 89.5837 24.6798 88.3852 24.6798Z" fill="#393939"/>
<path d="M95.1206 27.3439H98.3107V24.2686H95.1206V27.3439Z" fill="#393939"/>
<path d="M100.27 16.4908H103.513V13.6658H100.27V16.4908ZM100.253 27.3439H103.531V17.6888H100.253V27.3439Z" fill="#393939"/>
<path d="M111.334 17.4206C110.1 17.4206 109.043 17.8854 108.338 18.69L107.897 17.6888H105.588V27.3439H108.867V22.1945C108.867 20.9608 109.448 20.2456 110.47 20.2456C111.299 20.2456 111.722 20.7999 111.722 21.9263V27.3439H115V21.4614C115 19.0119 113.537 17.4206 111.334 17.4206Z" fill="#393939"/>
<path fill-rule="evenodd" clip-rule="evenodd" d="M0 8C0 3.58172 3.58172 0 8 0H33.6654C38.0837 0 41.6654 3.58172 41.6654 8V33.6658C41.6654 38.084 38.0837 41.6658 33.6654 41.6658H8C3.58172 41.6658 0 38.084 0 33.6658V8Z" fill="#169C50"/>
<path fill-rule="evenodd" clip-rule="evenodd" d="M32.4418 24.3932V16.9509C33.5773 16.7086 34.4443 15.7892 34.6199 14.6416C34.7955 13.494 34.2428 12.3575 33.2318 11.7869C32.2206 11.2162 30.962 11.3305 30.0703 12.0739L23.5881 8.33112C23.5979 8.23296 23.6037 8.13519 23.6037 8.03481C23.6037 6.49201 22.353 5.2413 20.8102 5.2413C19.2675 5.2413 18.0167 6.492 18.0167 8.03481C18.0171 8.15314 18.0256 8.27135 18.042 8.38854L11.6205 12.0964C10.7376 11.3414 9.47966 11.2119 8.46149 11.771C7.44337 12.3302 6.87767 13.4613 7.04095 14.6113C7.20442 15.7614 8.06266 16.6902 9.19625 16.9437V24.4004C8.06485 24.6528 7.2068 25.5781 7.04026 26.7253C6.87388 27.8726 7.43325 29.0035 8.44637 29.5672C9.45925 30.1309 10.7152 30.0102 11.6024 29.264L18.1745 33.0592L18.2222 32.9754C18.5066 34.2496 19.0711 35.2643 19.7771 35.7736V36.2815H20.3438V36.0581C20.4948 36.1054 20.652 36.1297 20.8102 36.1303C21.0391 36.1288 21.2649 36.0795 21.4736 35.9859V36.2822H22.0415V35.614C22.7389 34.9065 23.2079 34.0057 23.3876 33.0285L30.0025 29.2091C30.8774 29.9888 32.1462 30.1391 33.1792 29.5855C34.2121 29.0319 34.7895 27.8922 34.6248 26.7319C34.4601 25.5716 33.5884 24.6376 32.4422 24.3932L32.4418 24.3932ZM31.8458 12.5963C32.76 12.5959 33.5012 13.3366 33.5016 14.2507C33.5019 15.1648 32.7611 15.9061 31.847 15.9063C30.9329 15.9066 30.1918 15.1658 30.1917 14.2516C30.1917 13.3378 30.9321 12.5969 31.8459 12.5963L31.8458 12.5963ZM23.1951 9.4858L29.3343 13.0298C29.0226 13.6861 28.9813 14.4387 29.2195 15.1251L25.0659 17.5602C24.239 16.2986 22.8946 15.4692 21.396 15.2962V10.7662C22.1453 10.604 22.7953 10.1412 23.1935 9.4862L23.1951 9.4858ZM20.7971 6.41121C21.7113 6.4108 22.4526 7.15147 22.453 8.06562C22.4532 8.97967 21.7124 9.72093 20.7983 9.72117C19.8843 9.72147 19.1431 8.98065 19.143 8.06654C19.143 7.15383 19.8823 6.41313 20.7954 6.41156L20.7971 6.41121ZM18.4558 9.53099C18.8517 10.1548 19.4789 10.5961 20.2 10.7583V15.3006C18.6952 15.4825 17.3502 16.3263 16.5314 17.6017L12.4219 15.2013C12.6878 14.5062 12.6611 13.733 12.3479 13.0579L18.4558 9.53099ZM8.14023 14.2512C8.13949 13.3369 8.88034 12.5952 9.79475 12.5948C10.7091 12.5944 11.4507 13.3354 11.4508 14.2498C11.4508 15.1646 10.7096 15.9057 9.79509 15.9056C8.88111 15.9061 8.13974 15.1659 8.13862 14.2519L8.14023 14.2512ZM9.79548 28.8117C8.88101 28.8123 8.13949 28.0713 8.13939 27.1568C8.13939 26.2423 8.88092 25.5012 9.79533 25.5017C10.7097 25.5021 11.4503 26.2441 11.4493 27.1585C11.4486 28.0722 10.7077 28.8124 9.79397 28.8124L9.79548 28.8117ZM10.3932 24.3925V16.9509C10.9145 16.8399 11.393 16.5815 11.7714 16.2063L16.008 18.6796C15.5415 20.0013 15.6471 21.4576 16.2993 22.6982L11.9002 25.2765C11.5047 24.8283 10.9759 24.5187 10.3915 24.3932L10.3932 24.3925ZM23.591 31.5301C23.5984 31.3857 23.6029 31.2413 23.6029 31.0937C23.6029 28.6911 22.6695 26.6842 21.4213 26.1821V21.9307C22.19 21.6555 22.6491 20.8673 22.5095 20.063C22.3698 19.2586 21.6717 18.6713 20.8554 18.6713C20.039 18.6713 19.341 19.2586 19.2013 20.063C19.0616 20.8673 19.5208 21.6554 20.2894 21.9307V26.1478C18.9972 26.5889 18.0192 28.6341 18.0192 31.093C18.0192 31.2626 18.0254 31.4301 18.0337 31.5951L12.3377 28.3053C12.5121 27.9359 12.6027 27.5327 12.6031 27.1242C12.6027 26.8509 12.5624 26.5791 12.4836 26.3175L16.9732 23.6864C17.7347 24.5623 18.7727 25.1515 19.915 25.3563V24.1697C17.9861 23.718 16.6959 21.9 16.9061 19.9301C17.1162 17.9601 18.7611 16.4553 20.7419 16.4207C22.7226 16.3862 24.4191 17.8327 24.6979 19.7941C24.9767 21.7555 23.7506 23.6174 21.8386 24.1362V25.3375C22.9204 25.1135 23.8998 24.5434 24.6285 23.7132L29.1734 26.367C28.9971 26.9857 29.041 27.6463 29.2975 28.2364L23.591 31.5301ZM29.7374 25.3119L25.31 22.7263C25.9823 21.4642 26.0872 19.9761 25.5988 18.6323L29.841 16.1459C30.2211 16.5453 30.711 16.8228 31.2489 16.9433V24.4C30.6588 24.5315 30.1276 24.8518 29.7357 25.3122L29.7374 25.3119ZM31.8463 28.8132C30.932 28.8138 30.1905 28.073 30.1902 27.1587C30.1898 26.2445 30.9308 25.5032 31.8451 25.5031C32.7594 25.5031 33.5004 26.2444 33.5002 27.1586C33.4994 28.0718 32.7591 28.8118 31.8459 28.8124L31.8463 28.8132Z" fill="white"/>
</svg>
