<svg width="26" height="25" viewBox="0 0 26 25" fill="none" xmlns="http://www.w3.org/2000/svg">
<path d="M12.9662 5.66577C14.0105 5.66577 14.8571 4.88227 14.8571 3.91577C14.8571 2.94927 14.0105 2.16577 12.9662 2.16577C11.9219 2.16577 11.0753 2.94927 11.0753 3.91577C11.0753 4.88227 11.9219 5.66577 12.9662 5.66577Z" fill="#525151" stroke="#525151"/>
<path d="M10.1482 15.0776V7.66577H11.3668H13.1969H15.1479H16.1482V15.0776H15.1479H14.1482L14.1484 21.6658H12.1482V15.0776H11.3668H10.1482Z" fill="#525151"/>
<path d="M11.8858 15.5776H11.0415H9.72473V8.16577H11.0415H13.0189H15.127H16.2079V15.5776H15.127H14.0468M11.8858 15.5776V22.1658H14.047L14.0468 15.5776M11.8858 15.5776H14.0468" stroke="#525151" stroke-linecap="round" stroke-linejoin="round"/>
</svg>
