<svg width="26" height="25" viewBox="0 0 26 25" fill="none" xmlns="http://www.w3.org/2000/svg">
<path d="M13.5065 15.3325C15.993 15.3325 18.0087 13.467 18.0087 11.1658C18.0087 10.2278 17.6737 9.36215 17.1085 8.66577C16.9714 8.49682 16.8208 8.33782 16.658 8.19017M13.5065 15.3325C11.02 15.3325 9.00432 13.467 9.00432 11.1658C9.00432 10.0002 9.52145 8.94639 10.355 8.19017M13.5065 15.3325V18.6658M16.658 8.19017L21.6104 3.66577M16.658 8.19017C15.8459 7.4534 14.7335 6.9991 13.5065 6.9991C12.2794 6.9991 11.1671 7.4534 10.355 8.19017M10.355 8.19017L8.64415 6.66577M13.5065 18.6658V21.5825M13.5065 18.6658H10.355M13.5065 18.6658H16.658M21.6104 3.66577H17.8286M21.6104 3.66577V7.16577M8.64415 6.66577L5.40259 3.66577M8.64415 6.66577L6.48311 8.66577M8.64415 6.66577L10.8052 4.66577M5.40259 3.66577H8.64415M5.40259 3.66577V6.66577" stroke="#525151" stroke-width="1.8" stroke-linecap="round"/>
</svg>
