<svg width="40" height="41" viewBox="0 0 40 41" fill="none" xmlns="http://www.w3.org/2000/svg">
<path d="M40 20.6658C40 31.7115 31.0457 40.6658 20 40.6658C8.9543 40.6658 0 31.7115 0 20.6658C0 9.62008 8.9543 0.665771 20 0.665771C31.0457 0.665771 40 9.62008 40 20.6658Z" fill="#169C50"/>
<path d="M20.8819 13.2142C20.8819 12.7272 20.4871 12.3324 20.0002 12.3324C19.5132 12.3324 19.1184 12.7272 19.1184 13.2142V19.7844H12.5484C12.0614 19.7844 11.6667 20.1792 11.6667 20.6662C11.6667 21.1532 12.0614 21.548 12.5484 21.548H19.1184V28.1173C19.1184 28.6043 19.5132 28.9991 20.0002 28.9991C20.4871 28.9991 20.8819 28.6043 20.8819 28.1173V21.548H27.4516C27.9386 21.548 28.3333 21.1532 28.3333 20.6662C28.3333 20.1792 27.9386 19.7844 27.4516 19.7844H20.8819V13.2142Z" fill="white"/>
</svg>
